<svg width="600" height="600" viewBox="0 0 600 600" fill="none" xmlns="http://www.w3.org/2000/svg">
<path d="M0.246582 200C0.246582 89.5429 89.7896 0 200.247 0H599.753V399.507C599.753 509.964 510.21 599.507 399.753 599.507H0.246582V200Z" fill="#0A07B7"/>
<circle cx="245.5" cy="347.303" r="213.097" fill="#000001"/>
<ellipse cx="482.987" cy="109.106" rx="73.441" ry="73.0012" fill="#F47E00"/>
<path d="M237.554 497.771L345.264 266.787C346.254 264.682 346.355 262.307 345.56 260.121C343.913 255.598 338.906 253.263 334.383 254.91L88.5566 344.383C84.0333 346.029 81.6985 351.037 83.3448 355.56C84.152 357.778 85.8532 359.596 87.9941 360.549L187.935 404.957L221.461 497.071C223.108 501.594 228.115 503.929 232.638 502.282C234.823 501.487 236.578 499.883 237.554 497.771Z" fill="white"/>
</svg>
